<svg width="729" height="64" viewBox="0 0 729 64" fill="none" xmlns="http://www.w3.org/2000/svg">
<path fill-rule="evenodd" clip-rule="evenodd" d="M726.242 28.4462C724.78 28.4462 723.596 30.0385 723.596 32.0009C723.596 33.9632 724.78 35.5556 726.242 35.5556C727.705 35.5556 728.889 33.9649 728.889 32.0009C728.889 30.0368 727.705 28.4462 726.242 28.4462ZM705.946 27.2653V36.7381C705.946 38.7074 707.13 40.298 708.592 40.298C710.054 40.298 711.239 38.7039 711.239 36.7381V27.2653C711.239 25.2961 710.054 23.7054 708.592 23.7054C707.13 23.7054 705.946 25.2995 705.946 27.2653ZM661.831 10.6554V55.7167C661.831 57.6704 663.015 59.2593 664.478 59.2593C665.94 59.2593 667.124 57.6721 667.124 55.7167V10.6554C667.124 8.70173 665.94 7.11284 664.478 7.11284C663.015 7.11284 661.831 8.7 661.831 10.6554ZM670.656 17.7614V46.2386C670.656 48.2044 671.84 49.7778 673.303 49.7778C674.765 49.7778 675.949 48.1941 675.949 46.2386V17.7631C675.949 15.7973 674.765 14.2239 673.303 14.2239C671.84 14.2239 670.647 15.8077 670.647 17.7631L670.656 17.7614ZM679.481 20.1438V46.2265C679.481 48.1768 680.666 49.7778 682.128 49.7778C683.59 49.7778 684.774 48.1872 684.774 46.2265V20.1456C684.774 18.1953 683.59 16.5943 682.128 16.5943C680.666 16.5943 679.472 18.1832 679.472 20.1456L679.481 20.1438ZM688.295 22.5056V43.8631C688.295 45.7978 689.48 47.4074 690.942 47.4074C692.404 47.4074 693.588 45.8202 693.588 43.8631V22.5056C693.588 20.5709 692.404 18.9612 690.942 18.9612C689.48 18.9612 688.295 20.5519 688.295 22.5056ZM697.121 24.9019V39.1033C697.121 41.0709 698.305 42.6736 699.767 42.6736C701.229 42.6736 702.413 41.0743 702.413 39.1033V24.9122C702.413 22.9447 701.229 21.342 699.767 21.342C698.305 21.342 697.121 22.9326 697.121 24.9053V24.9019ZM714.76 29.6305V34.3712C714.76 36.3284 715.944 37.9277 717.406 37.9277C718.868 37.9277 720.053 36.3353 720.053 34.3712V29.6322C720.053 27.6751 718.868 26.0758 717.406 26.0758C715.944 26.0758 714.76 27.6682 714.76 29.6305ZM652.999 3.53394V60.4678C652.999 62.418 654.186 64 655.648 64C657.11 64 658.294 62.418 658.294 60.4678V3.53394C658.294 1.58371 657.11 0.00173209 655.648 0.00173209C654.186 0.00173209 652.999 1.58543 652.999 3.53394ZM644.174 20.1317V43.8735C644.174 45.8375 645.358 47.4074 646.821 47.4074C648.283 47.4074 649.467 45.8254 649.467 43.8735V20.1283C649.467 18.1642 648.283 16.5943 646.821 16.5943C645.358 16.5943 644.176 18.1832 644.176 20.1283L644.174 20.1317ZM635.349 17.7665V46.2386C635.349 48.2044 636.533 49.7778 637.995 49.7778C639.458 49.7778 640.642 48.1941 640.642 46.2386V17.7631C640.642 15.7973 639.458 14.2239 637.995 14.2239C636.533 14.2239 635.351 15.8077 635.351 17.7631L635.349 17.7665ZM626.524 17.7665V46.2386C626.524 48.2044 627.708 49.7778 629.17 49.7778C630.632 49.7778 631.817 48.1941 631.817 46.2386V17.7631C631.817 15.7973 630.632 14.2239 629.17 14.2239C627.708 14.2239 626.526 15.8077 626.526 17.7631L626.524 17.7665ZM617.703 22.5056V43.8631C617.703 45.7978 618.887 47.4074 620.35 47.4074C621.812 47.4074 622.996 45.8202 622.996 43.8631V22.5056C622.996 20.5709 621.812 18.9612 620.35 18.9612C618.887 18.9612 617.703 20.5519 617.703 22.5056ZM608.878 20.1248V43.8735C608.878 45.8375 610.062 47.4074 611.524 47.4074C612.987 47.4074 614.171 45.8254 614.171 43.8735V20.1283C614.171 18.1642 612.987 16.5943 611.524 16.5943C610.062 16.5943 608.878 18.1832 608.878 20.1283V20.1248ZM600.053 13.0137V50.9846C600.053 52.9158 601.237 54.5185 602.699 54.5185C604.161 54.5185 605.346 52.9365 605.346 50.9846V13.0172C605.346 11.0859 604.161 9.48321 602.699 9.48321C601.237 9.48321 600.053 11.0652 600.053 13.0172V13.0137ZM591.228 17.7596V46.2386C591.228 48.2044 592.412 49.7778 593.874 49.7778C595.336 49.7778 596.52 48.1941 596.52 46.2386V17.7631C596.52 15.7973 595.336 14.2239 593.874 14.2239C592.412 14.2239 591.23 15.8077 591.23 17.7631L591.228 17.7596ZM582.402 24.8794V41.4772C582.402 43.4343 583.587 45.0249 585.049 45.0249C586.511 45.0249 587.695 43.436 587.695 41.4772V24.8794C587.695 22.9222 586.511 21.3316 585.049 21.3316C583.587 21.3316 582.405 22.924 582.405 24.8828L582.402 24.8794ZM573.577 20.1248V43.8735C573.577 45.8375 574.761 47.4074 576.224 47.4074C577.686 47.4074 578.87 45.8254 578.87 43.8735V20.1283C578.87 18.1642 577.686 16.5943 576.224 16.5943C574.761 16.5943 573.582 18.1832 573.582 20.1283L573.577 20.1248ZM564.752 17.7596V46.2386C564.752 48.2044 565.936 49.7778 567.399 49.7778C568.861 49.7778 570.045 48.1941 570.045 46.2386V17.7631C570.045 15.7973 568.861 14.2239 567.399 14.2239C565.936 14.2239 564.757 15.8077 564.757 17.7631L564.752 17.7596ZM555.927 20.1421V46.2265C555.927 48.1768 557.111 49.7778 558.573 49.7778C560.036 49.7778 561.22 48.1872 561.22 46.2265V20.1456C561.22 18.1953 560.036 16.5943 558.573 16.5943C557.111 16.5943 555.931 18.1832 555.931 20.1456L555.927 20.1421ZM547.109 22.5056V43.8631C547.109 45.7978 548.293 47.4074 549.755 47.4074C551.217 47.4074 552.401 45.8202 552.401 43.8631V22.5056C552.401 20.5709 551.217 18.9612 549.755 18.9612C548.293 18.9612 547.109 20.5519 547.109 22.5056ZM538.283 24.9019V39.1033C538.283 41.0709 539.468 42.6736 540.93 42.6736C542.392 42.6736 543.576 41.0743 543.576 39.1033V24.9122C543.576 22.9447 542.392 21.342 540.93 21.342C539.468 21.342 538.283 22.9326 538.283 24.9053V24.9019ZM529.458 20.1421V46.2265C529.458 48.1768 530.642 49.7778 532.105 49.7778C533.567 49.7778 534.751 48.1872 534.751 46.2265V20.1456C534.751 18.1953 533.567 16.5943 532.105 16.5943C530.642 16.5943 529.458 18.1832 529.458 20.1456V20.1421ZM520.633 5.94235V58.0559C520.633 60.0442 521.817 61.6296 523.279 61.6296C524.742 61.6296 525.921 60.0234 525.921 58.0559V5.94581C525.921 3.95753 524.737 2.3721 523.275 2.3721C521.813 2.3721 520.635 3.97309 520.635 5.94581L520.633 5.94235ZM511.808 24.9019V39.1033C511.808 41.0709 512.992 42.6736 514.454 42.6736C515.917 42.6736 517.101 41.0743 517.101 39.1033V24.9122C517.101 22.9447 515.917 21.342 514.454 21.342C512.992 21.342 511.81 22.9326 511.81 24.9053L511.808 24.9019ZM502.983 15.4135V50.9552C502.983 52.9504 504.167 54.5202 505.629 54.5202C507.091 54.5202 508.276 52.9244 508.276 50.9552V15.4169C508.276 13.4217 507.091 11.8518 505.629 11.8518C504.167 11.8518 502.987 13.4494 502.987 15.4169L502.983 15.4135ZM340.609 10.652C340.609 8.69481 339.433 7.10938 337.962 7.10938C336.491 7.10938 335.316 8.69827 335.316 10.652V55.7167C335.316 57.6738 336.491 59.2593 337.962 59.2593C339.433 59.2593 340.609 57.6704 340.609 55.7167V10.652ZM349.443 15.4169C349.443 13.4477 348.268 11.8518 346.796 11.8518C345.325 11.8518 344.15 13.4217 344.15 15.4169V50.9552C344.15 52.9244 345.325 54.5202 346.796 54.5202C348.268 54.5202 349.443 52.9504 349.443 50.9552V15.4169ZM358.268 20.1283C358.268 18.1763 357.093 16.5943 355.622 16.5943C354.15 16.5943 352.975 18.1642 352.975 20.1283V43.8735C352.975 45.8254 354.15 47.4074 355.622 47.4074C357.093 47.4074 358.268 45.8375 358.268 43.8735V20.1283ZM367.093 17.7631C367.093 15.8077 365.918 14.2239 364.447 14.2239C362.975 14.2239 361.8 15.7973 361.8 17.7631V46.2386C361.8 48.1941 362.975 49.7778 364.447 49.7778C365.918 49.7778 367.093 48.2044 367.093 46.2386V17.7631ZM375.918 17.7631C375.918 15.8077 374.743 14.2239 373.272 14.2239C371.801 14.2239 370.625 15.7973 370.625 17.7631V46.2386C370.625 48.1941 371.801 49.7778 373.272 49.7778C374.743 49.7778 375.918 48.2044 375.918 46.2386V17.7631ZM384.743 10.6537C384.743 8.69827 383.568 7.11457 382.097 7.11457C380.626 7.11457 379.451 8.71383 379.451 10.6537V53.3498C379.451 55.3052 380.626 56.8889 382.097 56.8889C383.568 56.8889 384.743 55.2896 384.743 53.3498V10.6537ZM393.569 20.13C393.569 18.178 392.393 16.5961 390.922 16.5961C389.451 16.5961 388.276 18.1659 388.276 20.13V43.8735C388.276 45.8254 389.451 47.4074 390.922 47.4074C392.393 47.4074 393.569 45.8375 393.569 43.8735V20.13ZM402.394 13.0189C402.394 11.0669 401.219 9.48494 399.747 9.48494C398.276 9.48494 397.101 11.0877 397.101 13.0189V50.9846C397.101 52.9365 398.276 54.5185 399.747 54.5185C401.219 54.5185 402.394 52.9158 402.394 50.9846V13.0189ZM411.219 3.53567C411.219 1.58543 410.044 0.00345572 408.573 0.00345572C407.101 0.00345572 405.926 1.58543 405.926 3.53567V60.4678C405.926 62.418 407.101 64 408.573 64C410.044 64 411.219 62.418 411.219 60.4678V3.53567ZM420.044 10.6537C420.044 8.69827 418.869 7.11457 417.398 7.11457C415.926 7.11457 414.751 8.71383 414.751 10.6537V53.3498C414.751 55.3052 415.926 56.8889 417.398 56.8889C418.869 56.8889 420.044 55.2896 420.044 53.3498V10.6537ZM428.869 10.6537C428.869 8.69827 427.694 7.11457 426.223 7.11457C424.752 7.11457 423.576 8.71383 423.576 10.6537V53.3498C423.576 55.3052 424.752 56.8889 426.223 56.8889C427.694 56.8889 428.869 55.2896 428.869 53.3498V10.6537ZM437.694 17.7631C437.694 15.8077 436.519 14.2239 435.048 14.2239C433.577 14.2239 432.402 15.7973 432.402 17.7631V46.2386C432.402 48.1941 433.577 49.7778 435.048 49.7778C436.519 49.7778 437.694 48.2044 437.694 46.2386V17.7631ZM446.52 20.1456C446.52 18.1849 445.344 16.5943 443.873 16.5943C442.402 16.5943 441.227 18.1953 441.227 20.1456V46.2265C441.227 48.1872 442.402 49.7778 443.873 49.7778C445.344 49.7778 446.52 48.1768 446.52 46.2265V20.1456ZM455.336 22.5056C455.336 20.5484 454.161 18.9612 452.689 18.9612C451.218 18.9612 450.043 20.5726 450.043 22.5056V43.8631C450.043 45.8202 451.218 47.4074 452.689 47.4074C454.161 47.4074 455.336 45.796 455.336 43.8631V22.5056ZM464.161 24.9019C464.161 22.9291 462.986 21.3316 461.515 21.3316C460.043 21.3316 458.868 22.9343 458.868 24.9019V39.1033C458.868 41.076 460.043 42.6736 461.515 42.6736C462.986 42.6736 464.161 41.0709 464.161 39.1033V24.9019ZM472.993 20.1456C472.993 18.1849 471.818 16.5943 470.346 16.5943C468.875 16.5943 467.7 18.1953 467.7 20.1456V46.2265C467.7 48.1872 468.875 49.7778 470.346 49.7778C471.818 49.7778 472.993 48.1768 472.993 46.2265V20.1456ZM481.818 13.0172C481.818 11.0652 480.643 9.48321 479.172 9.48321C477.7 9.48321 476.525 11.0859 476.525 13.0172V50.9846C476.525 52.9365 477.7 54.5185 479.172 54.5185C480.643 54.5185 481.818 52.9158 481.818 50.9846V13.0172ZM490.643 24.9053C490.643 22.9326 489.468 21.3351 487.997 21.3351C486.525 21.3351 485.35 22.9378 485.35 24.9053V39.1033C485.35 41.076 486.525 42.6736 487.997 42.6736C489.468 42.6736 490.643 41.0709 490.643 39.1033V24.9053ZM499.457 15.4169C499.457 13.4477 498.282 11.8518 496.811 11.8518C495.339 11.8518 494.164 13.4217 494.164 15.4169V50.9552C494.164 52.9244 495.339 54.5202 496.811 54.5202C498.282 54.5202 499.457 52.9504 499.457 50.9552V15.4169ZM326.5 10.6554V55.7167C326.5 57.6704 327.684 59.2593 329.146 59.2593C330.608 59.2593 331.792 57.6721 331.792 55.7167V10.6554C331.792 8.70173 330.608 7.11284 329.146 7.11284C327.684 7.11284 326.5 8.7 326.5 10.6554ZM317.674 3.53394V60.4678C317.674 62.418 318.859 64 320.321 64C321.783 64 322.967 62.418 322.967 60.4678V3.53394C322.967 1.58371 321.783 0.00173209 320.321 0.00173209C318.859 0.00173209 317.674 1.58543 317.674 3.53394ZM308.849 20.1317V43.8735C308.849 45.8375 310.033 47.4074 311.496 47.4074C312.958 47.4074 314.142 45.8254 314.142 43.8735V20.1283C314.142 18.1642 312.958 16.5943 311.496 16.5943C310.033 16.5943 308.852 18.1832 308.852 20.1283L308.849 20.1317ZM300.024 17.7665V46.2386C300.024 48.2044 301.208 49.7778 302.671 49.7778C304.133 49.7778 305.317 48.1941 305.317 46.2386V17.7631C305.317 15.7973 304.133 14.2239 302.671 14.2239C301.208 14.2239 300.026 15.8077 300.026 17.7631L300.024 17.7665ZM291.199 17.7665V46.2386C291.199 48.2044 292.383 49.7778 293.845 49.7778C295.308 49.7778 296.492 48.1941 296.492 46.2386V17.7631C296.492 15.7973 295.308 14.2239 293.845 14.2239C292.383 14.2239 291.203 15.8077 291.203 17.7631L291.199 17.7665ZM282.378 22.5056V43.8631C282.378 45.7978 283.562 47.4074 285.025 47.4074C286.487 47.4074 287.671 45.8202 287.671 43.8631V22.5056C287.671 20.5709 286.487 18.9612 285.025 18.9612C283.562 18.9612 282.378 20.5519 282.378 22.5056ZM273.553 20.1248V43.8735C273.553 45.8375 274.737 47.4074 276.2 47.4074C277.662 47.4074 278.846 45.8254 278.846 43.8735V20.1283C278.846 18.1642 277.662 16.5943 276.2 16.5943C274.737 16.5943 273.553 18.1832 273.553 20.1283V20.1248ZM264.728 13.0137V50.9846C264.728 52.9158 265.912 54.5185 267.374 54.5185C268.837 54.5185 270.021 52.9365 270.021 50.9846V13.0172C270.021 11.0859 268.837 9.48321 267.374 9.48321C265.912 9.48321 264.73 11.0652 264.73 13.0172L264.728 13.0137ZM255.903 17.7596V46.2386C255.903 48.2044 257.087 49.7778 258.549 49.7778C260.012 49.7778 261.196 48.1941 261.196 46.2386V17.7631C261.196 15.7973 260.012 14.2239 258.549 14.2239C257.087 14.2239 255.896 15.8077 255.896 17.7631L255.903 17.7596ZM247.078 24.8794V41.4772C247.078 43.4343 248.262 45.0249 249.724 45.0249C251.186 45.0249 252.371 43.436 252.371 41.4772V24.8794C252.371 22.9222 251.186 21.3316 249.724 21.3316C248.262 21.3316 247.08 22.924 247.08 24.8828L247.078 24.8794ZM238.252 20.1248V43.8735C238.252 45.8375 239.437 47.4074 240.899 47.4074C242.361 47.4074 243.545 45.8254 243.545 43.8735V20.1283C243.545 18.1642 242.361 16.5943 240.899 16.5943C239.437 16.5943 238.257 18.1832 238.257 20.1283L238.252 20.1248ZM229.427 17.7596V46.2386C229.427 48.2044 230.611 49.7778 232.074 49.7778C233.536 49.7778 234.72 48.1941 234.72 46.2386V17.7631C234.72 15.7973 233.536 14.2239 232.074 14.2239C230.611 14.2239 229.432 15.8077 229.432 17.7631L229.427 17.7596ZM220.602 20.1421V46.2265C220.602 48.1768 221.786 49.7778 223.249 49.7778C224.711 49.7778 225.895 48.1872 225.895 46.2265V20.1456C225.895 18.1953 224.711 16.5943 223.249 16.5943C221.786 16.5943 220.609 18.1832 220.609 20.1456L220.602 20.1421ZM211.784 22.5056V43.8631C211.784 45.7978 212.968 47.4074 214.43 47.4074C215.892 47.4074 217.077 45.8202 217.077 43.8631V22.5056C217.077 20.5709 215.892 18.9612 214.43 18.9612C212.968 18.9612 211.784 20.5519 211.784 22.5056ZM202.959 24.9019V39.1033C202.959 41.0709 204.143 42.6736 205.605 42.6736C207.067 42.6736 208.251 41.0743 208.251 39.1033V24.9122C208.251 22.9447 207.067 21.342 205.605 21.342C204.143 21.342 202.968 22.9326 202.968 24.9053L202.959 24.9019ZM194.133 20.1421V46.2265C194.133 48.1768 195.318 49.7778 196.78 49.7778C198.242 49.7778 199.426 48.1872 199.426 46.2265V20.1456C199.426 18.1953 198.242 16.5943 196.78 16.5943C195.318 16.5943 194.136 18.1832 194.136 20.1456L194.133 20.1421ZM185.308 5.94235V58.0559C185.308 60.0442 186.492 61.6296 187.955 61.6296C189.417 61.6296 190.601 60.0304 190.601 58.0559V5.94581C190.601 3.95753 189.417 2.3721 187.955 2.3721C186.492 2.3721 185.31 3.97309 185.31 5.94581L185.308 5.94235ZM176.483 24.9019V39.1033C176.483 41.0709 177.667 42.6736 179.13 42.6736C180.592 42.6736 181.776 41.0743 181.776 39.1033V24.9122C181.776 22.9447 180.592 21.342 179.13 21.342C177.667 21.342 176.485 22.9326 176.485 24.9053L176.483 24.9019ZM167.658 15.4135V50.9552C167.658 52.9504 168.842 54.5202 170.304 54.5202C171.767 54.5202 172.951 52.9244 172.951 50.9552V15.4169C172.951 13.4217 171.767 11.8518 170.304 11.8518C168.842 11.8518 167.662 13.4494 167.662 15.4169L167.658 15.4135ZM164.128 10.652C164.128 8.69481 162.953 7.10938 161.481 7.10938C160.01 7.10938 158.835 8.69827 158.835 10.652V55.7167C158.835 57.6738 160.01 59.2593 161.481 59.2593C162.953 59.2593 164.128 57.6704 164.128 55.7167V10.652ZM155.303 15.4135C155.303 13.4442 154.127 11.8484 152.656 11.8484C151.185 11.8484 150.01 13.4183 150.01 15.4135V50.9552C150.01 52.9244 151.185 54.5202 152.656 54.5202C154.127 54.5202 155.303 52.9504 155.303 50.9552V15.4135ZM146.478 20.1248C146.478 18.1728 145.302 16.5909 143.831 16.5909C142.36 16.5909 141.185 18.1607 141.185 20.1248V43.8735C141.185 45.8254 142.36 47.4074 143.831 47.4074C145.302 47.4074 146.478 45.8375 146.478 43.8735V20.1248ZM137.652 17.7596C137.652 15.8042 136.477 14.2205 135.006 14.2205C133.535 14.2205 132.359 15.7938 132.359 17.7596V46.2386C132.359 48.1941 133.535 49.7778 135.006 49.7778C136.477 49.7778 137.652 48.2044 137.652 46.2386V17.7596ZM128.827 17.7596C128.827 15.8042 127.652 14.2205 126.181 14.2205C124.71 14.2205 123.534 15.7938 123.534 17.7596V46.2386C123.534 48.1941 124.71 49.7778 126.181 49.7778C127.652 49.7778 128.827 48.2044 128.827 46.2386V17.7596ZM120.002 10.6502C120.002 8.69481 118.827 7.11111 117.356 7.11111C115.884 7.11111 114.709 8.71037 114.709 10.6502V53.3498C114.709 55.3052 115.884 56.8889 117.356 56.8889C118.827 56.8889 120.002 55.2896 120.002 53.3498V10.6502ZM111.177 20.1265C111.177 18.1746 110.002 16.5926 108.53 16.5926C107.059 16.5926 105.884 18.1625 105.884 20.1265V43.8735C105.884 45.8254 107.059 47.4074 108.53 47.4074C110.002 47.4074 111.177 45.8375 111.177 43.8735V20.1265ZM102.352 13.0154C102.352 11.0635 101.177 9.48148 99.7053 9.48148C98.2341 9.48148 97.0589 11.0842 97.0589 13.0154V50.9846C97.0589 52.9365 98.2341 54.5185 99.7053 54.5185C101.177 54.5185 102.352 52.9158 102.352 50.9846V13.0154ZM93.5265 3.53222C93.5265 1.58198 92.3513 1.08766e-06 90.8801 1.08766e-06C89.4089 1.08766e-06 88.2337 1.58198 88.2337 3.53222V60.4678C88.2337 62.418 89.4089 64 90.8801 64C92.3513 64 93.5265 62.418 93.5265 60.4678V3.53222ZM84.7013 10.6502C84.7013 8.69481 83.5262 7.11111 82.0549 7.11111C80.5837 7.11111 79.4086 8.71037 79.4086 10.6502V53.3498C79.4086 55.3052 80.5837 56.8889 82.0549 56.8889C83.5262 56.8889 84.7013 55.2896 84.7013 53.3498V10.6502ZM75.8762 10.6502C75.8762 8.69481 74.7011 7.11111 73.2298 7.11111C71.7586 7.11111 70.5833 8.71037 70.5833 10.6502V53.3498C70.5833 55.3052 71.7586 56.8889 73.2298 56.8889C74.7011 56.8889 75.8762 55.2896 75.8762 53.3498V10.6502ZM67.0511 17.7596C67.0511 15.8042 65.8759 14.2205 64.4046 14.2205C62.9334 14.2205 61.7582 15.7938 61.7582 17.7596V46.2386C61.7582 48.1941 62.9334 49.7778 64.4046 49.7778C65.8759 49.7778 67.0511 48.2044 67.0511 46.2386V17.7596ZM58.2259 20.1421C58.2259 18.1815 57.0507 16.5909 55.5795 16.5909C54.1082 16.5909 52.9331 18.1919 52.9331 20.1421V46.2265C52.9331 48.1872 54.1082 49.7778 55.5795 49.7778C57.0507 49.7778 58.2259 48.1768 58.2259 46.2265V20.1421ZM49.4164 22.5056C49.4164 20.5484 48.2413 18.9612 46.77 18.9612C45.2988 18.9612 44.1236 20.5726 44.1236 22.5056V43.8631C44.1236 45.8202 45.2988 47.4074 46.77 47.4074C48.2413 47.4074 49.4164 45.796 49.4164 43.8631V22.5056ZM40.5913 24.9019C40.5913 22.9291 39.4161 21.3316 37.9448 21.3316C36.4736 21.3316 35.2984 22.9343 35.2984 24.9019V39.1033C35.2984 41.076 36.4736 42.6736 37.9448 42.6736C39.4161 42.6736 40.5913 41.0709 40.5913 39.1033V24.9019ZM31.7661 20.1421C31.7661 18.1815 30.5909 16.5909 29.1197 16.5909C27.6484 16.5909 26.4733 18.1919 26.4733 20.1421V46.2265C26.4733 48.1872 27.6484 49.7778 29.1197 49.7778C30.5909 49.7778 31.7661 48.1768 31.7661 46.2265V20.1421ZM22.941 13.0137C22.941 11.0617 21.7658 9.47975 20.2946 9.47975C18.8233 9.47975 17.6481 11.0825 17.6481 13.0137V50.9846C17.6481 52.9365 18.8233 54.5185 20.2946 54.5185C21.7658 54.5185 22.941 52.9158 22.941 50.9846V13.0137ZM14.1158 24.9019C14.1158 22.9291 12.9406 21.3316 11.4694 21.3316C9.99815 21.3316 8.82289 22.9343 8.82289 24.9019V39.1033C8.82289 41.076 9.99815 42.6736 11.4694 42.6736C12.9406 42.6736 14.1158 41.0709 14.1158 39.1033V24.9019ZM5.29062 15.4135C5.29062 13.4442 4.11536 11.8484 2.64412 11.8484C1.17289 11.8484 1.66893e-06 13.4235 1.66893e-06 15.4169V50.9552C1.66893e-06 52.9244 1.17518 54.5202 2.64642 54.5202C4.11765 54.5202 5.29283 52.9504 5.29283 50.9552L5.29062 15.4135Z" fill="#030303"/>
</svg>
